<!--?xml version="1.0" standalone="no"?--><svg width="960" height="500" version="1.1" xmlns="http://www.w3.org/2000/svg" xmlns:xlink="http://www.w3.org/1999/xlink" style="perspective-origin:480px 250px;transform-origin:480px 250px;"><g transform="translate(50,20)" style="overflow-x:visible;overflow-y:visible;perspective-origin:0px 0px;transform-origin:0px 0px;"><g class="x axis" transform="translate(0,450)" style="overflow-x:visible;overflow-y:visible;perspective-origin:0px 0px;transform-origin:0px 0px;"><g class="tick" transform="translate(0,0)" style="overflow-x:visible;overflow-y:visible;perspective-origin:0px 0px;transform-origin:0px 0px;"><line y2="6" x2="0" style="overflow-x:visible;overflow-y:visible;perspective-origin:0px 0px;transform-origin:0px 0px;fill:none;shape-rendering:crispEdges;stroke:rgb(0, 0, 0);"></line><text dy=".71em" y="9" x="0" style="display:block;font-family:Helvetica;font-size:11px;overflow-x:visible;overflow-y:visible;white-space:nowrap;perspective-origin:12.2344px 6.25px;transform-origin:0px 0px;text-anchor:middle;">2013</text></g><g class="tick" transform="translate(61.516799881586735,0)" style="overflow-x:visible;overflow-y:visible;perspective-origin:0px 0px;transform-origin:0px 0px;"><line y2="6" x2="0" style="overflow-x:visible;overflow-y:visible;perspective-origin:0px 0px;transform-origin:0px 0px;fill:none;shape-rendering:crispEdges;stroke:rgb(0, 0, 0);"></line><text dy=".71em" y="9" x="0" style="display:block;font-family:Helvetica;font-size:11px;overflow-x:visible;overflow-y:visible;white-space:nowrap;perspective-origin:11px 6.25px;transform-origin:0px 0px;text-anchor:middle;">April</text></g><g class="tick" transform="translate(123.74592954410893,0)" style="overflow-x:visible;overflow-y:visible;perspective-origin:0px 0px;transform-origin:0px 0px;"><line y2="6" x2="0" style="overflow-x:visible;overflow-y:visible;perspective-origin:0px 0px;transform-origin:0px 0px;fill:none;shape-rendering:crispEdges;stroke:rgb(0, 0, 0);"></line><text dy=".71em" y="9" x="0" style="display:block;font-family:Helvetica;font-size:11px;overflow-x:visible;overflow-y:visible;white-space:nowrap;perspective-origin:9.76562px 6.25px;transform-origin:0px 0px;text-anchor:middle;">July</text></g><g class="tick" transform="translate(186.65889579632918,0)" style="overflow-x:visible;overflow-y:visible;perspective-origin:0px 0px;transform-origin:0px 0px;"><line y2="6" x2="0" style="overflow-x:visible;overflow-y:visible;perspective-origin:0px 0px;transform-origin:0px 0px;fill:none;shape-rendering:crispEdges;stroke:rgb(0, 0, 0);"></line><text dy=".71em" y="9" x="0" style="display:block;font-family:Helvetica;font-size:11px;overflow-x:visible;overflow-y:visible;white-space:nowrap;perspective-origin:19.5625px 6.25px;transform-origin:0px 0px;text-anchor:middle;">October</text></g><g class="tick" transform="translate(249.60035523978686,0)" style="overflow-x:visible;overflow-y:visible;perspective-origin:0px 0px;transform-origin:0px 0px;"><line y2="6" x2="0" style="overflow-x:visible;overflow-y:visible;perspective-origin:0px 0px;transform-origin:0px 0px;fill:none;shape-rendering:crispEdges;stroke:rgb(0, 0, 0);"></line><text dy=".71em" y="9" x="0" style="display:block;font-family:Helvetica;font-size:11px;overflow-x:visible;overflow-y:visible;white-space:nowrap;perspective-origin:12.2344px 6.25px;transform-origin:0px 0px;text-anchor:middle;">2014</text></g><g class="tick" transform="translate(311.11715512137357,0)" style="overflow-x:visible;overflow-y:visible;perspective-origin:0px 0px;transform-origin:0px 0px;"><line y2="6" x2="0" style="overflow-x:visible;overflow-y:visible;perspective-origin:0px 0px;transform-origin:0px 0px;fill:none;shape-rendering:crispEdges;stroke:rgb(0, 0, 0);"></line><text dy=".71em" y="9" x="0" style="display:block;font-family:Helvetica;font-size:11px;overflow-x:visible;overflow-y:visible;white-space:nowrap;perspective-origin:11px 6.25px;transform-origin:0px 0px;text-anchor:middle;">April</text></g><g class="tick" transform="translate(373.3462847838958,0)" style="overflow-x:visible;overflow-y:visible;perspective-origin:0px 0px;transform-origin:0px 0px;"><line y2="6" x2="0" style="overflow-x:visible;overflow-y:visible;perspective-origin:0px 0px;transform-origin:0px 0px;fill:none;shape-rendering:crispEdges;stroke:rgb(0, 0, 0);"></line><text dy=".71em" y="9" x="0" style="display:block;font-family:Helvetica;font-size:11px;overflow-x:visible;overflow-y:visible;white-space:nowrap;perspective-origin:9.76562px 6.25px;transform-origin:0px 0px;text-anchor:middle;">July</text></g><g class="tick" transform="translate(436.25925103611604,0)" style="overflow-x:visible;overflow-y:visible;perspective-origin:0px 0px;transform-origin:0px 0px;"><line y2="6" x2="0" style="overflow-x:visible;overflow-y:visible;perspective-origin:0px 0px;transform-origin:0px 0px;fill:none;shape-rendering:crispEdges;stroke:rgb(0, 0, 0);"></line><text dy=".71em" y="9" x="0" style="display:block;font-family:Helvetica;font-size:11px;overflow-x:visible;overflow-y:visible;white-space:nowrap;perspective-origin:19.5625px 6.25px;transform-origin:0px 0px;text-anchor:middle;">October</text></g><g class="tick" transform="translate(499.20071047957373,0)" style="overflow-x:visible;overflow-y:visible;perspective-origin:0px 0px;transform-origin:0px 0px;"><line y2="6" x2="0" style="overflow-x:visible;overflow-y:visible;perspective-origin:0px 0px;transform-origin:0px 0px;fill:none;shape-rendering:crispEdges;stroke:rgb(0, 0, 0);"></line><text dy=".71em" y="9" x="0" style="display:block;font-family:Helvetica;font-size:11px;overflow-x:visible;overflow-y:visible;white-space:nowrap;perspective-origin:12.2344px 6.25px;transform-origin:0px 0px;text-anchor:middle;">2015</text></g><g class="tick" transform="translate(560.7175103611604,0)" style="overflow-x:visible;overflow-y:visible;perspective-origin:0px 0px;transform-origin:0px 0px;"><line y2="6" x2="0" style="overflow-x:visible;overflow-y:visible;perspective-origin:0px 0px;transform-origin:0px 0px;fill:none;shape-rendering:crispEdges;stroke:rgb(0, 0, 0);"></line><text dy=".71em" y="9" x="0" style="display:block;font-family:Helvetica;font-size:11px;overflow-x:visible;overflow-y:visible;white-space:nowrap;perspective-origin:11px 6.25px;transform-origin:0px 0px;text-anchor:middle;">April</text></g><g class="tick" transform="translate(622.9466400236827,0)" style="overflow-x:visible;overflow-y:visible;perspective-origin:0px 0px;transform-origin:0px 0px;"><line y2="6" x2="0" style="overflow-x:visible;overflow-y:visible;perspective-origin:0px 0px;transform-origin:0px 0px;fill:none;shape-rendering:crispEdges;stroke:rgb(0, 0, 0);"></line><text dy=".71em" y="9" x="0" style="display:block;font-family:Helvetica;font-size:11px;overflow-x:visible;overflow-y:visible;white-space:nowrap;perspective-origin:9.76562px 6.25px;transform-origin:0px 0px;text-anchor:middle;">July</text></g><g class="tick" transform="translate(685.8596062759029,0)" style="overflow-x:visible;overflow-y:visible;perspective-origin:0px 0px;transform-origin:0px 0px;"><line y2="6" x2="0" style="overflow-x:visible;overflow-y:visible;perspective-origin:0px 0px;transform-origin:0px 0px;fill:none;shape-rendering:crispEdges;stroke:rgb(0, 0, 0);"></line><text dy=".71em" y="9" x="0" style="display:block;font-family:Helvetica;font-size:11px;overflow-x:visible;overflow-y:visible;white-space:nowrap;perspective-origin:19.5625px 6.25px;transform-origin:0px 0px;text-anchor:middle;">October</text></g><g class="tick" transform="translate(748.8010657193605,0)" style="overflow-x:visible;overflow-y:visible;perspective-origin:0px 0px;transform-origin:0px 0px;"><line y2="6" x2="0" style="overflow-x:visible;overflow-y:visible;perspective-origin:0px 0px;transform-origin:0px 0px;fill:none;shape-rendering:crispEdges;stroke:rgb(0, 0, 0);"></line><text dy=".71em" y="9" x="0" style="display:block;font-family:Helvetica;font-size:11px;overflow-x:visible;overflow-y:visible;white-space:nowrap;perspective-origin:12.2344px 6.25px;transform-origin:0px 0px;text-anchor:middle;">2016</text></g><path class="domain" d="M0,6V0H770V6" style="overflow-x:visible;overflow-y:visible;perspective-origin:0px 0px;transform-origin:0px 0px;fill:none;shape-rendering:crispEdges;stroke:rgb(0, 0, 0);"></path></g><g class="y axis" style="overflow-x:visible;overflow-y:visible;perspective-origin:0px 0px;transform-origin:0px 0px;"><g class="tick" transform="translate(0,420.9736123748862)" style="overflow-x:visible;overflow-y:visible;perspective-origin:0px 0px;transform-origin:0px 0px;"><line x2="-6" y2="0" style="overflow-x:visible;overflow-y:visible;perspective-origin:0px 0px;transform-origin:0px 0px;fill:none;shape-rendering:crispEdges;stroke:rgb(0, 0, 0);"></line><text dy=".32em" x="-9" y="0" style="display:block;font-family:Helvetica;font-size:11px;overflow-x:visible;overflow-y:visible;white-space:nowrap;perspective-origin:6.10938px 6.25px;transform-origin:0px 0px;text-anchor:end;">50</text></g><g class="tick" transform="translate(0,375.4777070063694)" style="overflow-x:visible;overflow-y:visible;perspective-origin:0px 0px;transform-origin:0px 0px;"><line x2="-6" y2="0" style="overflow-x:visible;overflow-y:visible;perspective-origin:0px 0px;transform-origin:0px 0px;fill:none;shape-rendering:crispEdges;stroke:rgb(0, 0, 0);"></line><text dy=".32em" x="-9" y="0" style="display:block;font-family:Helvetica;font-size:11px;overflow-x:visible;overflow-y:visible;white-space:nowrap;perspective-origin:6.10938px 6.25px;transform-origin:0px 0px;text-anchor:end;">60</text></g><g class="tick" transform="translate(0,329.9818016378526)" style="overflow-x:visible;overflow-y:visible;perspective-origin:0px 0px;transform-origin:0px 0px;"><line x2="-6" y2="0" style="overflow-x:visible;overflow-y:visible;perspective-origin:0px 0px;transform-origin:0px 0px;fill:none;shape-rendering:crispEdges;stroke:rgb(0, 0, 0);"></line><text dy=".32em" x="-9" y="0" style="display:block;font-family:Helvetica;font-size:11px;overflow-x:visible;overflow-y:visible;white-space:nowrap;perspective-origin:6.10938px 6.25px;transform-origin:0px 0px;text-anchor:end;">70</text></g><g class="tick" transform="translate(0,284.48589626933574)" style="overflow-x:visible;overflow-y:visible;perspective-origin:0px 0px;transform-origin:0px 0px;"><line x2="-6" y2="0" style="overflow-x:visible;overflow-y:visible;perspective-origin:0px 0px;transform-origin:0px 0px;fill:none;shape-rendering:crispEdges;stroke:rgb(0, 0, 0);"></line><text dy=".32em" x="-9" y="0" style="display:block;font-family:Helvetica;font-size:11px;overflow-x:visible;overflow-y:visible;white-space:nowrap;perspective-origin:6.10938px 6.25px;transform-origin:0px 0px;text-anchor:end;">80</text></g><g class="tick" transform="translate(0,238.98999090081892)" style="overflow-x:visible;overflow-y:visible;perspective-origin:0px 0px;transform-origin:0px 0px;"><line x2="-6" y2="0" style="overflow-x:visible;overflow-y:visible;perspective-origin:0px 0px;transform-origin:0px 0px;fill:none;shape-rendering:crispEdges;stroke:rgb(0, 0, 0);"></line><text dy=".32em" x="-9" y="0" style="display:block;font-family:Helvetica;font-size:11px;overflow-x:visible;overflow-y:visible;white-space:nowrap;perspective-origin:6.10938px 6.25px;transform-origin:0px 0px;text-anchor:end;">90</text></g><g class="tick" transform="translate(0,193.49408553230208)" style="overflow-x:visible;overflow-y:visible;perspective-origin:0px 0px;transform-origin:0px 0px;"><line x2="-6" y2="0" style="overflow-x:visible;overflow-y:visible;perspective-origin:0px 0px;transform-origin:0px 0px;fill:none;shape-rendering:crispEdges;stroke:rgb(0, 0, 0);"></line><text dy=".32em" x="-9" y="0" style="display:block;font-family:Helvetica;font-size:11px;overflow-x:visible;overflow-y:visible;white-space:nowrap;perspective-origin:9.17188px 6.25px;transform-origin:0px 0px;text-anchor:end;">100</text></g><g class="tick" transform="translate(0,147.9981801637853)" style="overflow-x:visible;overflow-y:visible;perspective-origin:0px 0px;transform-origin:0px 0px;"><line x2="-6" y2="0" style="overflow-x:visible;overflow-y:visible;perspective-origin:0px 0px;transform-origin:0px 0px;fill:none;shape-rendering:crispEdges;stroke:rgb(0, 0, 0);"></line><text dy=".32em" x="-9" y="0" style="display:block;font-family:Helvetica;font-size:11px;overflow-x:visible;overflow-y:visible;white-space:nowrap;perspective-origin:8.76562px 6.25px;transform-origin:0px 0px;text-anchor:end;">110</text></g><g class="tick" transform="translate(0,102.50227479526843)" style="overflow-x:visible;overflow-y:visible;perspective-origin:0px 0px;transform-origin:0px 0px;"><line x2="-6" y2="0" style="overflow-x:visible;overflow-y:visible;perspective-origin:0px 0px;transform-origin:0px 0px;fill:none;shape-rendering:crispEdges;stroke:rgb(0, 0, 0);"></line><text dy=".32em" x="-9" y="0" style="display:block;font-family:Helvetica;font-size:11px;overflow-x:visible;overflow-y:visible;white-space:nowrap;perspective-origin:9.17188px 6.25px;transform-origin:0px 0px;text-anchor:end;">120</text></g><g class="tick" transform="translate(0,57.0063694267516)" style="overflow-x:visible;overflow-y:visible;perspective-origin:0px 0px;transform-origin:0px 0px;"><line x2="-6" y2="0" style="overflow-x:visible;overflow-y:visible;perspective-origin:0px 0px;transform-origin:0px 0px;fill:none;shape-rendering:crispEdges;stroke:rgb(0, 0, 0);"></line><text dy=".32em" x="-9" y="0" style="display:block;font-family:Helvetica;font-size:11px;overflow-x:visible;overflow-y:visible;white-space:nowrap;perspective-origin:9.17188px 6.25px;transform-origin:0px 0px;text-anchor:end;">130</text></g><g class="tick" transform="translate(0,11.510464058234755)" style="overflow-x:visible;overflow-y:visible;perspective-origin:0px 0px;transform-origin:0px 0px;"><line x2="-6" y2="0" style="overflow-x:visible;overflow-y:visible;perspective-origin:0px 0px;transform-origin:0px 0px;fill:none;shape-rendering:crispEdges;stroke:rgb(0, 0, 0);"></line><text dy=".32em" x="-9" y="0" style="display:block;font-family:Helvetica;font-size:11px;overflow-x:visible;overflow-y:visible;white-space:nowrap;perspective-origin:9.17188px 6.25px;transform-origin:0px 0px;text-anchor:end;">140</text></g><path class="domain" d="M-6,0H0V450H-6" style="overflow-x:visible;overflow-y:visible;perspective-origin:0px 0px;transform-origin:0px 0px;fill:none;shape-rendering:crispEdges;stroke:rgb(0, 0, 0);"></path><text y="6" dy=".71em" dx=".71em" class="headline" style="display:block;font-family:Helvetica;font-size:22px;overflow-x:visible;overflow-y:visible;white-space:nowrap;perspective-origin:342.734px 12.75px;transform-origin:0px 0px;">Development of exchange rates for NOK and oil price. 100 = Jan 2013</text></g><g class="city" style="overflow-x:visible;overflow-y:visible;perspective-origin:0px 0px;transform-origin:0px 0px;"><path class="line" d="M0,193.49408553230208L3.533155713439905,193.6002426448286C7.06631142687981,193.70639975735514,14.13262285375962,193.91871398240824,20.857015985790408,194.0703670003033C27.581409117821195,194.22202001819835,33.963883955002956,194.31301182893537,40.68352822182751,194.3736730360934C47.40317248865206,194.4343342432514,54.4599861851194,194.46466484683043,61.407575981843294,194.4874127995147C68.3551657785672,194.51016075219894,75.19353167554766,194.52532605398844,82.14587033747779,194.36609038519862C89.09820899940793,194.20685471640883,96.16452042628774,193.87321807703972,103.11685908821786,193.34243251440702C110.069197750148,192.81164695177432,116.90756364712847,192.08371246587805,123.8599023090586,191.196542311192C130.81224097098874,190.3093721565059,137.87855239786856,189.26296633303002,144.94486382474838,188.2544737640279C152.01117525162817,187.24598119502576,159.077486678508,186.2754018804974,166.02982534043815,185.183500151653C172.98216400236828,184.0915984228086,179.8205298993487,182.87837427964814,186.77761742648508,181.5362450712769C193.73470495362145,180.19411586290568,200.81051411091374,178.72308158932364,207.7676016380501,177.0928116469518C214.72468916518648,175.4625417045799,221.56305506216694,173.67303609341823,228.51539372409707,171.92144373673034C235.46773238602722,170.16985138004242,242.53404381290704,168.4561722778283,249.60035523978686,166.8031543827722C256.6666666666667,165.15013648771608,263.73297809354654,163.55777979981798,270.45737122557733,162.07916287534115C277.1817643576081,160.60054595086436,283.5642391947898,159.23566878980884,290.2838834616144,157.95420078859564C297.00352772843894,156.67273278738242,304.06034142490626,155.47467394601148,311.00793122163014,154.37518956627235C317.95552101835403,153.2757051865332,324.7938869153345,152.27479526842583,331.7462255772646,151.36487716105552C338.69856423919475,150.45495905368517,345.76487566607454,149.63603275705188,352.71721432800473,148.80194115862906C359.6695529899348,147.96784956020628,366.50791888691526,147.11859265999394,373.46025754884545,146.42857142857142C380.4125962107756,145.7385501971489,387.4789076376554,145.2077646345162,394.5452190645352,144.76797088262052C401.611530491415,144.32817713072484,408.6778419182948,143.9793751895662,415.63018058022493,143.63815589930235C422.58251924215506,143.29693660903848,429.4208851391355,142.96329996966938,436.3779726662719,142.55383682135275C443.33506019340825,142.1443736730361,450.4108693507006,141.65908401577192,457.36795687783695,140.93873218077042C464.32504440497337,140.21838034576888,471.16341030195383,139.26296633303002,478.1157489638839,138.33030027297542C485.0680876258141,137.39763421292082,492.1343990526939,136.48771610555048,499.2007104795737,135.80527752502272C506.2670219064535,135.12283894449496,513.3333333333333,134.6678798908098,520.0577264653641,134.14467697907185C526.7821195973949,133.6214740673339,533.1645944345767,133.03002729754314,539.8842387014012,132.52198968759473C546.6038829682258,132.01395207764628,553.6606966646931,131.58932362754013,560.6082864614169,131.15711252653924C567.5558762581409,130.72490142553835,574.3942421551213,130.28510767364267,581.3465808170515,129.61025174400967C588.2989194789816,128.93539581437668,595.3652309058614,128.02547770700633,602.3175695677916,127.10797694874122C609.2699082297218,126.19047619047613,616.1082741267021,125.26539278131628,623.0606127886323,124.01425538368207C630.0129514505625,122.76311798604785,637.0792628774423,121.18592659993928,644.1455743043219,119.44191689414615C651.2118857312018,117.69790718835301,658.2781971580816,115.78707916287533,665.2305358200117,114.00515620260842C672.1828744819419,112.22323324234151,679.0212403789224,110.5702153472854,685.9783279060588,109.09159842280857C692.9354154331952,107.61298149833178,700.0112245904875,106.30876554443427,706.9683121176238,105.23961176827413C713.9253996447602,104.170457992114,720.7637655417407,103.33636639369121,727.7161042036707,102.36578707916286C734.6684428656009,101.3952077646345,741.7347542924807,100.28814073400056,748.8010657193604,98.93084622383978C755.8673771462403,97.57355171367902,762.9336885731201,95.9660297239914,766.46684428656,95.1622687291476L770,94.3585077343038" style="overflow-x:visible;overflow-y:visible;perspective-origin:0px 0px;transform-origin:0px 0px;fill:none;stroke:rgb(31, 119, 180);stroke-width:1.5px;"></path><text transform="translate(770,94.3585077343038)" x="3" dy=".35em" style="display:block;font-family:Helvetica;font-size:11px;overflow-x:visible;overflow-y:visible;white-space:nowrap;perspective-origin:25.9688px 6.25px;transform-origin:0px 0px;">USD (122)</text></g><g class="city" style="overflow-x:visible;overflow-y:visible;perspective-origin:0px 0px;transform-origin:0px 0px;"><path class="line" d="M0,193.49408553230208L3.533155713439905,193.78222626630267C7.06631142687981,194.07036700030326,14.13262285375962,194.64664846830448,20.857015985790408,195.16226872914768C27.581409117821195,195.67788898999086,33.963883955002956,196.13284804367606,40.68352822182751,196.59538974825597C47.40317248865206,197.0579314528359,54.4599861851194,197.52805580831054,61.407575981843294,198.1119199272065C68.3551657785672,198.69578404610246,75.19353167554766,199.39338792841974,82.14587033747779,199.9317561419472C89.09820899940793,200.47012435547464,96.16452042628774,200.84925690021228,103.11685908821786,201.25113739763418C110.069197750148,201.65301789505608,116.90756364712847,202.07764634516224,123.8599023090586,202.32029117379432C130.81224097098874,202.56293600242643,137.87855239786856,202.62359720958443,144.94486382474838,202.50985744616315C152.01117525162817,202.39611768274185,159.077486678508,202.10797694874125,166.02982534043815,201.69093114952986C172.98216400236828,201.27388535031844,179.8205298993487,200.72793448589624,186.77761742648508,199.99241734910524C193.73470495362145,199.25690021231418,200.81051411091374,198.33181680315437,207.7676016380501,197.18683651804668C214.72468916518648,196.04185623293898,221.56305506216694,194.67697907188347,228.51539372409707,193.10737033666967C235.46773238602722,191.53776160145583,242.53404381290704,189.7634212920837,249.60035523978686,187.82984531392174C256.6666666666667,185.89626933575977,263.73297809354654,183.80345768880798,270.45737122557733,181.88504701243554C277.1817643576081,179.96663633606306,283.5642391947898,178.22262663026993,290.2838834616144,176.57719138610858C297.00352772843894,174.93175614194723,304.06034142490626,173.38489535941764,311.00793122163014,171.85319987867757C317.95552101835403,170.32150439793747,324.7938869153345,168.8049742189869,331.7462255772646,167.25811343645734C338.69856423919475,165.71125265392777,345.76487566607454,164.13406126781922,352.71721432800473,162.36730360934183C359.6695529899348,160.60054595086442,366.50791888691526,158.64422202001822,373.46025754884545,156.9002123142251C380.4125962107756,155.15620260843195,387.4789076376554,153.62450712769188,394.5452190645352,152.26721261753113C401.611530491415,150.9099181073704,408.6778419182948,149.72702456778896,415.63018058022493,148.47588717015475C422.58251924215506,147.2247497725205,429.4208851391355,145.9053685168335,436.3779726662719,144.59356991204126C443.33506019340825,143.281771307249,450.4108693507006,141.97755535335148,457.36795687783695,140.40794661813766C464.32504440497337,138.83833788292384,471.16341030195383,137.00333636639368,478.1157489638839,135.06217773733698C485.0680876258141,133.12101910828025,492.1343990526939,131.07370336669698,499.2007104795737,129.01122232332418C506.2670219064535,126.94874127995139,513.3333333333333,124.87109493478911,520.0577264653641,122.46739460115248C526.7821195973949,120.06369426751584,533.1645944345767,117.33393994540486,539.8842387014012,114.73309068850467C546.6038829682258,112.13224143160448,553.6606966646931,109.66029723991508,560.6082864614169,107.27934485896267C567.5558762581409,104.8983924780103,574.3942421551213,102.60843190779491,581.3465808170515,100.14407036700025C588.2989194789816,97.67970882620558,595.3652309058614,95.04094631483164,602.3175695677916,92.30360934182589C609.2699082297218,89.56627236882014,616.1082741267021,86.73036093418258,623.0606127886323,83.5911434637549C630.0129514505625,80.45192599332724,637.0792628774423,77.00940248710944,644.1455743043219,73.6427054898392C651.2118857312018,70.27600849256896,658.2781971580816,66.98513800424627,665.2305358200117,63.87625113739761C672.1828744819419,60.76736427054897,679.0212403789224,57.84046102517437,685.9783279060588,54.754322111009984C692.9354154331952,51.6681831968456,700.0112245904875,48.42280861389142,706.9683121176238,45.65514103730664C713.9253996447602,42.887473460721864,720.7637655417407,40.597512890506486,727.7161042036707,38.717015468607784C734.6684428656009,36.836518046709074,741.7347542924807,35.36548377312704,748.8010657193604,34.15984228086137C755.8673771462403,32.95420078859569,762.9336885731201,32.01395207764638,766.46684428656,31.54382772217172L770,31.073703366697064" style="overflow-x:visible;overflow-y:visible;perspective-origin:0px 0px;transform-origin:0px 0px;fill:none;stroke:rgb(255, 127, 14);stroke-width:1.5px;"></path><text transform="translate(770,31.073703366697064)" x="3" dy=".35em" style="display:block;font-family:Helvetica;font-size:11px;overflow-x:visible;overflow-y:visible;white-space:nowrap;perspective-origin:25.9688px 6.25px;transform-origin:0px 0px;">EUR (136)</text></g><g class="city" style="overflow-x:visible;overflow-y:visible;perspective-origin:0px 0px;transform-origin:0px 0px;"><path class="line" d="M0,193.49408553230208L3.533155713439905,193.66090385198663C7.06631142687981,193.82772217167118,14.13262285375962,194.16135881104032,20.857015985790408,194.25993327267207C27.581409117821195,194.35850773430386,33.963883955002956,194.2220200181983,40.68352822182751,194.10828025477701C47.40317248865206,193.9945404913557,54.4599861851194,193.90354868061868,61.407575981843294,193.94904458598722C68.3551657785672,193.99454049135574,75.19353167554766,194.1765241128298,82.14587033747779,194.4343342432514C89.09820899940793,194.692144373673,96.16452042628774,195.02578101304212,103.11685908821786,195.23809523809518C110.069197750148,195.45040946314828,116.90756364712847,195.5414012738853,123.8599023090586,195.5262359720958C130.81224097098874,195.5110706703063,137.87855239786856,195.38974825599027,144.94486382474838,195.08644222020018C152.01117525162817,194.78313618441004,159.077486678508,194.29784652714585,166.02982534043815,193.78222626630264C172.98216400236828,193.26660600545944,179.8205298993487,192.72065514103724,186.77761742648508,192.05338186229898C193.73470495362145,191.38610858356077,200.81051411091374,190.5975128905065,207.7676016380501,189.62693357597811C214.72468916518648,188.6563542614498,221.56305506216694,187.50379132544737,228.51539372409707,186.26023657870792C235.46773238602722,185.01668183196847,242.53404381290704,183.68213527449194,249.60035523978686,182.40066727327869C256.6666666666667,181.1191992720655,263.73297809354654,179.8908098271155,270.45737122557733,179.0263876251137C277.1817643576081,178.16196542311187,283.5642391947898,177.66151046405818,290.2838834616144,177.21413406126777C297.00352772843894,176.76675765847736,304.06034142490626,176.37245981195022,311.00793122163014,176.0539884743706C317.95552101835403,175.73551713679097,324.7938869153345,175.4928723081589,331.7462255772646,175.17440097057926C338.69856423919475,174.85592963299965,345.76487566607454,174.46163178647254,352.71721432800473,174.0824992417349C359.6695529899348,173.70336669699725,366.50791888691526,173.3393994540491,373.46025754884545,172.90718835304818C380.4125962107756,172.47497725204727,387.4789076376554,171.97452229299358,394.5452190645352,171.32241431604484C401.611530491415,170.67030633909613,408.6778419182948,169.86654534425233,415.63018058022493,168.80497421898696C422.58251924215506,167.74340309372155,429.4208851391355,166.42402183803458,436.3779726662719,164.96815286624204C443.33506019340825,163.5122838944495,450.4108693507006,161.9199272065514,457.36795687783695,159.88019411586288C464.32504440497337,157.84046102517436,471.16341030195383,155.35335153169544,478.1157489638839,152.44919623900512C485.0680876258141,149.5450409463148,492.1343990526939,146.2238398544131,499.2007104795737,142.94813466787986C506.2670219064535,139.67242948134668,513.3333333333333,136.44222020018196,520.0577264653641,132.66606005459508C526.7821195973949,128.8898999090082,533.1645944345767,124.5677888989991,539.8842387014012,120.31392174704277C546.6038829682258,116.06005459508643,553.6606966646931,111.87443130118285,560.6082864614169,108.02244464664844C567.5558762581409,104.170457992114,574.3942421551213,100.65210797694871,581.3465808170515,96.96693964209885C588.2989194789816,93.28177130724899,595.3652309058614,89.42978465271457,602.3175695677916,85.3958143767061C609.2699082297218,81.3618441006976,616.1082741267021,77.14589020321505,623.0606127886323,72.80103124052171C630.0129514505625,68.45617227782836,637.0792628774423,63.98240824992422,644.1455743043219,59.61480133454661C651.2118857312018,55.247194419169006,658.2781971580816,50.985744616317916,665.2305358200117,46.98210494388842C672.1828744819419,42.978465271458944,679.0212403789224,39.23263572945105,685.9783279060588,35.38064907491662C692.9354154331952,31.52866242038219,700.0112245904875,27.570518653321216,706.9683121176238,24.029420685471653C713.9253996447602,20.488322717622083,720.7637655417407,17.364270548983924,727.7161042036707,14.551107067030626C734.6684428656009,11.737943585077325,741.7347542924807,9.23566878980888,748.8010657193604,6.862299059751252C755.8673771462403,4.488929329693624,762.9336885731201,2.244464664846812,766.46684428656,1.122232332423406L770,0" style="overflow-x:visible;overflow-y:visible;perspective-origin:0px 0px;transform-origin:0px 0px;fill:none;stroke:rgb(44, 160, 44);stroke-width:1.5px;"></path><text transform="translate(770,0)" x="3" dy=".35em" style="display:block;font-family:Helvetica;font-size:11px;overflow-x:visible;overflow-y:visible;white-space:nowrap;perspective-origin:25.9688px 6.25px;transform-origin:0px 0px;">GBP (143)</text></g><g class="city" style="overflow-x:visible;overflow-y:visible;perspective-origin:0px 0px;transform-origin:0px 0px;"><path class="line" d="M0,193.49408553230208L3.533155713439905,193.67606915377615C7.06631142687981,193.8580527752502,14.13262285375962,194.22202001819835,20.857015985790408,195.367000303306C27.581409117821195,196.51198058841368,33.963883955002956,198.4379739156809,40.68352822182751,200.37154989384288C47.40317248865206,202.30512587200485,54.4599861851194,204.24628450106155,61.407575981843294,205.65665756748558C68.3551657785672,207.0670306339096,75.19353167554766,207.94661813770094,82.14587033747779,207.94661813770097C89.09820899940793,207.94661813770094,96.16452042628774,207.0670306339096,103.11685908821786,206.33151349711858C110.069197750148,205.59599636032755,116.90756364712847,205.00454959053684,123.8599023090586,204.82256596906274C130.81224097098874,204.6405823475887,137.87855239786856,204.86806187443125,144.94486382474838,205.05004549590532C152.01117525162817,205.2320291173794,159.077486678508,205.36851683348496,166.02982534043815,205.58841370943279C172.98216400236828,205.80831058538064,179.8205298993487,206.11161662117075,186.77761742648508,206.33151349711858C193.73470495362145,206.55141037306643,200.81051411091374,206.687898089172,207.7676016380501,206.687898089172C214.72468916518648,206.687898089172,221.56305506216694,206.55141037306643,228.51539372409707,206.75614194722476C235.46773238602722,206.96087352138306,242.53404381290704,207.50682438580526,249.60035523978686,208.18168031543826C256.6666666666667,208.85653624507125,263.73297809354654,209.66029723991505,270.45737122557733,210.12283894449496C277.1817643576081,210.5853806490749,283.5642391947898,210.70670306339093,290.2838834616144,210.4564755838641C297.00352772843894,210.20624810433725,304.06034142490626,209.58447073096752,311.00793122163014,208.8792841977555C317.95552101835403,208.1740976645435,324.7938869153345,207.3855019714892,331.7462255772646,206.49074916590837C338.69856423919475,205.59599636032752,345.76487566607454,204.59508644222015,352.71721432800473,204.1552926903245C359.6695529899348,203.71549893842882,366.50791888691526,203.83682135274486,373.46025754884545,204.4434334243251C380.4125962107756,205.0500454959053,387.4789076376554,206.1419472247497,394.5452190645352,207.5068243858052C401.611530491415,208.87170154686072,408.6778419182948,210.5095541401273,415.63018058022493,212.55686988171055C422.58251924215506,214.60418562329383,429.4208851391355,217.06096451319374,436.3779726662719,219.88929329693653C443.33506019340825,222.71762208067935,450.4108693507006,225.91750075826502,457.36795687783695,230.2547770700636C464.32504440497337,234.59205338186223,471.16341030195383,240.06672732787376,478.1157489638839,246.2162572035183C485.0680876258141,252.3657870791628,492.1343990526939,259.19017288444036,499.2007104795737,265.46860782529563C506.2670219064535,271.74704276615097,513.3333333333333,277.4795268425841,520.0577264653641,283.26508947528055C526.7821195973949,289.05065210797693,533.1645944345767,294.88929329693656,539.8842387014012,300.5307855626327C546.6038829682258,306.1722778283288,553.6606966646931,311.6166211707613,560.6082864614169,316.9093114952987C567.5558762581409,322.2020018198362,574.3942421551213,327.34303912647863,581.3465808170515,332.75705186533213C588.2989194789816,338.17106460418563,595.3652309058614,343.8580527752502,602.3175695677916,349.53745829542004C609.2699082297218,355.21686381558993,616.1082741267021,360.888686684865,623.0606127886323,366.84106763724594C630.0129514505625,372.7934485896269,637.0792628774423,379.02638762511367,644.1455743043219,384.94085532302086C651.2118857312018,390.8553230209281,658.2781971580816,396.4513193812557,665.2305358200117,401.44828632089786C672.1828744819419,406.4452532605399,679.0212403789224,410.8431907794965,685.9783279060588,415.02881407340004C692.9354154331952,419.2144373673036,700.0112245904875,423.18774643615404,706.9683121176238,426.55444343342424C713.9253996447602,429.92114043069455,720.7637655417407,432.6812253563845,727.7161042036707,435.02426448286315C734.6684428656009,437.3673036093418,741.7347542924807,439.29329693660895,748.8010657193604,441.7197452229299C755.8673771462403,444.1461935092508,762.9336885731201,447.0730967546254,766.46684428656,448.53654837731267L770,450" style="overflow-x:visible;overflow-y:visible;perspective-origin:0px 0px;transform-origin:0px 0px;fill:none;stroke:rgb(214, 39, 40);stroke-width:1.5px;"></path><text transform="translate(770,450)" x="3" dy=".35em" style="display:block;font-family:Helvetica;font-size:11px;overflow-x:visible;overflow-y:visible;white-space:nowrap;perspective-origin:46.75px 6.25px;transform-origin:0px 0px;">Oil Price Brent (44)</text></g></g></svg>
